<?xml version="1.0" encoding="UTF-8" standalone="no"?>
<svg
   xmlns:dc="http://purl.org/dc/elements/1.1/"
   xmlns:cc="http://creativecommons.org/ns#"
   xmlns:rdf="http://www.w3.org/1999/02/22-rdf-syntax-ns#"
   xmlns:svg="http://www.w3.org/2000/svg"
   xmlns="http://www.w3.org/2000/svg"
   xmlns:sodipodi="http://sodipodi.sourceforge.net/DTD/sodipodi-0.dtd"
   xmlns:inkscape="http://www.inkscape.org/namespaces/inkscape"
   width="210mm"
   height="297mm"
   viewBox="0 0 210 297"
   version="1.1"
   id="svg849"
   inkscape:version="1.0.2 (e86c8708, 2021-01-15)"
   sodipodi:docname="expand-yellow.svg">
  <defs
     id="defs843" />
  <sodipodi:namedview
     id="base"
     pagecolor="#ffffff"
     bordercolor="#666666"
     borderopacity="1.0"
     inkscape:pageopacity="0.0"
     inkscape:pageshadow="2"
     inkscape:zoom="0.35"
     inkscape:cx="431.42857"
     inkscape:cy="620.43159"
     inkscape:document-units="mm"
     inkscape:current-layer="layer1"
     inkscape:document-rotation="0"
     showgrid="false"
     inkscape:window-width="1440"
     inkscape:window-height="872"
     inkscape:window-x="0"
     inkscape:window-y="28"
     inkscape:window-maximized="0" />
  <metadata
     id="metadata846">
    <rdf:RDF>
      <cc:Work
         rdf:about="">
        <dc:format>image/svg+xml</dc:format>
        <dc:type
           rdf:resource="http://purl.org/dc/dcmitype/StillImage" />
        <dc:title></dc:title>
      </cc:Work>
    </rdf:RDF>
  </metadata>
  <g
     inkscape:label="Layer 1"
     inkscape:groupmode="layer"
     id="layer1"
     style="display:inline">
    <path
       fill="currentColor"
       d="M 1.7386951,110.58641 V 55.808214 c 0,-5.875406 4.9434907,-10.602233 11.0882009,-10.602233 h 57.289045 c 3.049255,0 5.5441,2.385503 5.5441,5.301117 V 68.17748 c 0,2.915614 -2.494845,5.301115 -5.5441,5.301115 H 31.307237 v 37.107815 c 0,2.91561 -2.494846,5.30112 -5.544101,5.30112 H 7.282796 c -3.0492559,0 -5.5441009,-2.38551 -5.5441009,-5.30112 z M 134.79711,50.507098 V 68.17748 c 0,2.915614 2.49484,5.301115 5.54409,5.301115 h 38.80871 v 37.107815 c 0,2.91561 2.49485,5.30112 5.5441,5.30112 h 18.48035 c 3.04925,0 5.5441,-2.38551 5.5441,-5.30112 V 55.808214 c 0,-5.875406 -4.94351,-10.602233 -11.0882,-10.602233 H 140.3412 c -3.04925,0 -5.54409,2.385503 -5.54409,5.301117 z m 68.37725,121.925672 h -18.48035 c -3.04925,0 -5.5441,2.38551 -5.5441,5.30112 V 214.8417 H 140.3412 c -3.04925,0 -5.54409,2.3855 -5.54409,5.30112 v 17.67038 c 0,2.91561 2.49484,5.30111 5.54409,5.30111 h 57.28906 c 6.14469,0 11.0882,-4.72682 11.0882,-10.60223 v -54.77819 c 0,-2.91561 -2.49485,-5.30112 -5.5441,-5.30112 z M 75.660041,237.8132 v -17.67038 c 0,-2.91562 -2.494845,-5.30112 -5.5441,-5.30112 H 31.307237 v -37.10781 c 0,-2.91561 -2.494846,-5.30112 -5.544101,-5.30112 H 7.282796 c -3.0492559,0 -5.5441009,2.38551 -5.5441009,5.30112 v 54.77819 c 0,5.87541 4.9434907,10.60223 11.0882009,10.60223 h 57.289045 c 3.049255,0 5.5441,-2.3855 5.5441,-5.30111 z"
       id="path2000"
       style="stroke-width:0.264582;fill:#f6bd60;fill-opacity:1" />
  </g>
</svg>
