<?xml version="1.0" encoding="UTF-8" standalone="no"?>
<svg
   xmlns:dc="http://purl.org/dc/elements/1.1/"
   xmlns:cc="http://creativecommons.org/ns#"
   xmlns:rdf="http://www.w3.org/1999/02/22-rdf-syntax-ns#"
   xmlns:svg="http://www.w3.org/2000/svg"
   xmlns="http://www.w3.org/2000/svg"
   xmlns:sodipodi="http://sodipodi.sourceforge.net/DTD/sodipodi-0.dtd"
   xmlns:inkscape="http://www.inkscape.org/namespaces/inkscape"
   width="210mm"
   height="297mm"
   viewBox="0 0 210 297"
   version="1.1"
   id="svg849"
   inkscape:version="1.0.2 (e86c8708, 2021-01-15)"
   sodipodi:docname="pause-yellow.svg">
  <defs
     id="defs843" />
  <sodipodi:namedview
     id="base"
     pagecolor="#ffffff"
     bordercolor="#666666"
     borderopacity="1.0"
     inkscape:pageopacity="0.0"
     inkscape:pageshadow="2"
     inkscape:zoom="0.35"
     inkscape:cx="431.42857"
     inkscape:cy="620.43159"
     inkscape:document-units="mm"
     inkscape:current-layer="layer1"
     inkscape:document-rotation="0"
     showgrid="false"
     inkscape:window-width="1440"
     inkscape:window-height="872"
     inkscape:window-x="0"
     inkscape:window-y="28"
     inkscape:window-maximized="0" />
  <metadata
     id="metadata846">
    <rdf:RDF>
      <cc:Work
         rdf:about="">
        <dc:format>image/svg+xml</dc:format>
        <dc:type
           rdf:resource="http://purl.org/dc/dcmitype/StillImage" />
        <dc:title></dc:title>
      </cc:Work>
    </rdf:RDF>
  </metadata>
  <g
     inkscape:label="Layer 1"
     inkscape:groupmode="layer"
     id="layer1">
    <path
       fill="currentColor"
       d="M 68.229639,243.36073 H 23.649494 c -12.305975,0 -22.2900692,-9.53601 -22.2900692,-21.28967 V 65.946841 c 0,-11.753691 9.9840942,-21.289684 22.2900692,-21.289684 h 44.580145 c 12.305969,0 22.290062,9.535993 22.290062,21.289684 V 222.07106 c 0,11.75366 -9.984093,21.28967 -22.290062,21.28967 z M 209.40008,222.07106 V 65.946841 c 0,-11.753691 -9.98408,-21.289684 -22.29006,-21.289684 h -44.58015 c -12.30596,0 -22.29005,9.535993 -22.29005,21.289684 V 222.07106 c 0,11.75366 9.98408,21.28967 22.29005,21.28967 h 44.58015 c 12.30598,0 22.29006,-9.53601 22.29006,-21.28967 z"
       id="path833"
       style="stroke-width:0.264583;fill:#f6bd60;fill-opacity:1" />
  </g>
</svg>
