<?xml version="1.0" encoding="UTF-8" standalone="no"?>
<svg
   xmlns:dc="http://purl.org/dc/elements/1.1/"
   xmlns:cc="http://creativecommons.org/ns#"
   xmlns:rdf="http://www.w3.org/1999/02/22-rdf-syntax-ns#"
   xmlns:svg="http://www.w3.org/2000/svg"
   xmlns="http://www.w3.org/2000/svg"
   xmlns:sodipodi="http://sodipodi.sourceforge.net/DTD/sodipodi-0.dtd"
   xmlns:inkscape="http://www.inkscape.org/namespaces/inkscape"
   width="210mm"
   height="297mm"
   viewBox="0 0 210 297"
   version="1.1"
   id="svg849"
   inkscape:version="1.0.2 (e86c8708, 2021-01-15)"
   sodipodi:docname="volume-yellow.svg">
  <defs
     id="defs843" />
  <sodipodi:namedview
     id="base"
     pagecolor="#ffffff"
     bordercolor="#666666"
     borderopacity="1.0"
     inkscape:pageopacity="0.0"
     inkscape:pageshadow="2"
     inkscape:zoom="0.35"
     inkscape:cx="431.42857"
     inkscape:cy="620.43159"
     inkscape:document-units="mm"
     inkscape:current-layer="layer3"
     inkscape:document-rotation="0"
     showgrid="false"
     inkscape:window-width="1440"
     inkscape:window-height="872"
     inkscape:window-x="0"
     inkscape:window-y="28"
     inkscape:window-maximized="0" />
  <metadata
     id="metadata846">
    <rdf:RDF>
      <cc:Work
         rdf:about="">
        <dc:format>image/svg+xml</dc:format>
        <dc:type
           rdf:resource="http://purl.org/dc/dcmitype/StillImage" />
        <dc:title></dc:title>
      </cc:Work>
    </rdf:RDF>
  </metadata>
  <g
     inkscape:label="Layer 1"
     inkscape:groupmode="layer"
     id="layer1"
     style="display:none">
    <path
       fill="currentColor"
       d="M 1.7386951,110.58641 V 55.808214 c 0,-5.875406 4.9434907,-10.602233 11.0882009,-10.602233 h 57.289045 c 3.049255,0 5.5441,2.385503 5.5441,5.301117 V 68.17748 c 0,2.915614 -2.494845,5.301115 -5.5441,5.301115 H 31.307237 v 37.107815 c 0,2.91561 -2.494846,5.30112 -5.544101,5.30112 H 7.282796 c -3.0492559,0 -5.5441009,-2.38551 -5.5441009,-5.30112 z M 134.79711,50.507098 V 68.17748 c 0,2.915614 2.49484,5.301115 5.54409,5.301115 h 38.80871 v 37.107815 c 0,2.91561 2.49485,5.30112 5.5441,5.30112 h 18.48035 c 3.04925,0 5.5441,-2.38551 5.5441,-5.30112 V 55.808214 c 0,-5.875406 -4.94351,-10.602233 -11.0882,-10.602233 H 140.3412 c -3.04925,0 -5.54409,2.385503 -5.54409,5.301117 z m 68.37725,121.925672 h -18.48035 c -3.04925,0 -5.5441,2.38551 -5.5441,5.30112 V 214.8417 H 140.3412 c -3.04925,0 -5.54409,2.3855 -5.54409,5.30112 v 17.67038 c 0,2.91561 2.49484,5.30111 5.54409,5.30111 h 57.28906 c 6.14469,0 11.0882,-4.72682 11.0882,-10.60223 v -54.77819 c 0,-2.91561 -2.49485,-5.30112 -5.5441,-5.30112 z M 75.660041,237.8132 v -17.67038 c 0,-2.91562 -2.494845,-5.30112 -5.5441,-5.30112 H 31.307237 v -37.10781 c 0,-2.91561 -2.494846,-5.30112 -5.544101,-5.30112 H 7.282796 c -3.0492559,0 -5.5441009,2.38551 -5.5441009,5.30112 v 54.77819 c 0,5.87541 4.9434907,10.60223 11.0882009,10.60223 h 57.289045 c 3.049255,0 5.5441,-2.3855 5.5441,-5.30111 z"
       id="path2000"
       style="fill:#f6bd60;fill-opacity:1;stroke-width:0.264582" />
  </g>
  <g
     inkscape:groupmode="layer"
     id="layer2"
     inkscape:label="Layer 2"
     style="display:none">
    <path
       fill="currentColor"
       d="M 197.32967,127.44073 35.294765,45.960555 C 22.129433,39.34347 1.9671343,45.764786 1.9671343,62.131293 V 225.05249 c 0,14.68287 18.7352837,23.53176 33.3276307,16.17074 L 197.32967,159.78222 c 14.45426,-7.24355 14.50029,-25.09793 0,-32.34149 z"
       id="path2010"
       style="fill:#f6bd60;fill-opacity:1;stroke-width:0.264583" />
  </g>
  <g
     inkscape:groupmode="layer"
     id="layer3"
     inkscape:label="Layer 3"
     style="display:inline">
    <path
       fill="currentColor"
       d="M 89.173323,74.245084 53.621714,109.91442 H 12.839455 c -5.2985845,0 -9.5901821,4.30632 -9.5901821,9.62307 v 57.73816 c 0,5.31271 4.2915976,9.62302 9.5901821,9.62302 H 53.621714 L 89.173323,222.564 c 6.005827,6.02642 16.371187,1.79228 16.371187,-6.80428 V 81.053364 c 0,-8.6086 -10.37335,-12.82268 -16.371187,-6.80828 z m 49.229567,43.335696 c -4.62727,-2.53807 -10.4653,-0.86607 -13.03066,3.78909 -2.5534,4.65514 -0.86312,10.50514 3.77613,13.07529 5.15872,2.84682 8.36344,8.1956 8.36344,13.96141 0,5.76581 -3.20472,11.11459 -8.35944,13.95739 -4.63926,2.57015 -6.32952,8.42014 -3.77614,13.07529 2.56936,4.67519 8.41139,6.33516 13.03067,3.78907 11.28045,-6.23492 18.28927,-18.04318 18.28927,-30.82577 0,-12.78258 -7.00882,-24.58683 -18.29327,-30.82177 z"
       id="path2020"
       style="fill:#f6bd60;fill-opacity:1;stroke-width:0.264582" />
  </g>
  <g
     inkscape:groupmode="layer"
     id="layer4"
     inkscape:label="lay4"
     style="display:none">
    <path
       fill="currentColor"
       d="M 88.852736,74.47219 53.621714,109.91442 H 13.207202 c -5.2508028,0 -9.5037004,4.27936 -9.5037004,9.56281 v 57.37698 c 0,5.27948 4.2528976,9.56283 9.5037004,9.56283 h 40.414512 l 35.231022,35.44223 c 5.951624,5.98872 16.223494,1.78107 16.223494,-6.76171 V 81.2339 c 0,-8.55076 -10.27979,-12.74246 -16.223494,-6.76171 z m 97.654444,73.69353 18.07288,-18.18531 c 2.49473,-2.51024 2.49473,-6.58241 0,-9.09265 l -9.03645,-9.09265 c -2.49471,-2.51025 -6.54172,-2.51025 -9.03643,0 l -18.07288,18.1853 -18.07289,-18.1853 c -2.49471,-2.51025 -6.54171,-2.51025 -9.03643,0 l -9.03645,9.09265 c -2.49473,2.51024 -2.49473,6.58241 0,9.09265 l 18.07288,18.18531 -18.06893,18.18134 c -2.49472,2.51022 -2.49472,6.58241 0,9.09265 l 9.03645,9.09265 c 2.49473,2.51025 6.54172,2.51025 9.03645,0 l 18.06892,-18.18133 18.07288,18.18532 c 2.49471,2.51024 6.54172,2.51024 9.03643,0 l 9.03645,-9.09265 c 2.49473,-2.51025 2.49473,-6.58242 0,-9.09267 z"
       id="path2030"
       style="stroke-width:0.264583" />
  </g>
</svg>
